<svg xmlns="http://www.w3.org/2000/svg" xmlns:xlink="http://www.w3.org/1999/xlink" contentStyleType="text/css" data-diagram-type="CLASS" height="903px" preserveAspectRatio="none" style="width:1178px;height:903px;background:#FFFFFF;" version="1.1" viewBox="0 0 1178 903" width="1178px" zoomAndPan="magnify"><defs/><g><!--class Object--><g class="entity" data-entity="Object" data-source-line="7" data-uid="ent0002" id="entity_Object"><rect fill="#F1F1F1" height="129.4844" rx="2.5" ry="2.5" style="stroke:#181818;stroke-width:0.5;" width="206.0381" x="493.37" y="7"/><ellipse cx="569.3412" cy="23" fill="#ADD1B2" rx="11" ry="11" style="stroke:#181818;stroke-width:1;"/><path d="M572.3099,28.6406 Q571.7318,28.9375 571.0912,29.0781 Q570.4506,29.2344 569.7474,29.2344 Q567.2474,29.2344 565.9193,27.5938 Q564.6068,25.9375 564.6068,22.8125 Q564.6068,19.6875 565.9193,18.0313 Q567.2474,16.375 569.7474,16.375 Q570.4506,16.375 571.0912,16.5313 Q571.7474,16.6875 572.3099,16.9844 L572.3099,19.7031 Q571.6849,19.125 571.0912,18.8594 Q570.4974,18.5781 569.8724,18.5781 Q568.5287,18.5781 567.8412,19.6563 Q567.1537,20.7188 567.1537,22.8125 Q567.1537,24.9063 567.8412,25.9844 Q568.5287,27.0469 569.8724,27.0469 Q570.4974,27.0469 571.0912,26.7813 Q571.6849,26.5 572.3099,25.9219 L572.3099,28.6406 Z " fill="#000000"/><text fill="#000000" font-family="sans-serif" font-size="14" lengthAdjust="spacing" textLength="45.5957" x="589.8412" y="27.8467">Object</text><line style="stroke:#181818;stroke-width:0.5;" x1="494.37" x2="698.4081" y1="39" y2="39"/><text fill="#000000" font-family="sans-serif" font-size="14" lengthAdjust="spacing" textLength="98.5605" x="499.37" y="55.9951">-name : string</text><line style="stroke:#181818;stroke-width:0.5;" x1="494.37" x2="698.4081" y1="63.2969" y2="63.2969"/><text fill="#000000" font-family="sans-serif" font-size="14" lengthAdjust="spacing" textLength="161.7588" x="499.37" y="80.292">+Object(name : string)</text><text fill="#000000" font-family="sans-serif" font-size="14" lengthAdjust="spacing" textLength="146.3232" x="499.37" y="96.5889">+~Object() &#171;virtual&#187;</text><text fill="#000000" font-family="sans-serif" font-size="14" lengthAdjust="spacing" textLength="194.0381" x="499.37" y="112.8857">+getName() : const string&amp;</text><text fill="#000000" font-family="sans-serif" font-size="14" font-style="italic" lengthAdjust="spacing" textLength="178.4658" x="499.37" y="129.1826">+describe() const : string</text></g><!--class Character--><g class="entity" data-entity="Character" data-source-line="15" data-uid="ent0003" id="entity_Character"><rect fill="#F1F1F1" height="194.6719" rx="2.5" ry="2.5" style="stroke:#181818;stroke-width:0.5;" width="361.9795" x="113.4" y="189.48"/><ellipse cx="255.5807" cy="205.48" fill="#ADD1B2" rx="11" ry="11" style="stroke:#181818;stroke-width:1;"/><path d="M258.5494,211.1206 Q257.9713,211.4175 257.3307,211.5581 Q256.69,211.7144 255.9869,211.7144 Q253.4869,211.7144 252.1588,210.0738 Q250.8463,208.4175 250.8463,205.2925 Q250.8463,202.1675 252.1588,200.5113 Q253.4869,198.855 255.9869,198.855 Q256.69,198.855 257.3307,199.0113 Q257.9869,199.1675 258.5494,199.4644 L258.5494,202.1831 Q257.9244,201.605 257.3307,201.3394 Q256.7369,201.0581 256.1119,201.0581 Q254.7682,201.0581 254.0807,202.1363 Q253.3932,203.1988 253.3932,205.2925 Q253.3932,207.3863 254.0807,208.4644 Q254.7682,209.5269 256.1119,209.5269 Q256.7369,209.5269 257.3307,209.2613 Q257.9244,208.98 258.5494,208.4019 L258.5494,211.1206 Z " fill="#000000"/><text fill="#000000" font-family="sans-serif" font-size="14" lengthAdjust="spacing" textLength="69.1182" x="276.0807" y="210.3267">Character</text><line style="stroke:#181818;stroke-width:0.5;" x1="114.4" x2="474.3795" y1="221.48" y2="221.48"/><text fill="#000000" font-family="sans-serif" font-size="14" lengthAdjust="spacing" textLength="81.2383" x="119.4" y="238.4751">-health : int</text><text fill="#000000" font-family="sans-serif" font-size="14" lengthAdjust="spacing" text-decoration="underline" textLength="349.9795" x="119.4" y="254.772">+{readOnly} max_health : int &#171;constexpr&#187; = 300</text><line style="stroke:#181818;stroke-width:0.5;" x1="114.4" x2="474.3795" y1="262.0738" y2="262.0738"/><text fill="#000000" font-family="sans-serif" font-size="14" lengthAdjust="spacing" textLength="270.3682" x="119.4" y="279.0689">+Character(name : string, health : int)</text><text fill="#000000" font-family="sans-serif" font-size="14" lengthAdjust="spacing" textLength="153.9863" x="119.4" y="295.3657">+isAlive() const : bool</text><text fill="#000000" font-family="sans-serif" font-size="14" lengthAdjust="spacing" textLength="311.6162" x="119.4" y="311.6626">+getCharacterType() const : string &#171;virtual&#187;</text><text fill="#000000" font-family="sans-serif" font-size="14" lengthAdjust="spacing" textLength="258.4121" x="119.4" y="327.9595">+describe() const : string &#171;override&#187;</text><text fill="#000000" font-family="sans-serif" font-size="14" lengthAdjust="spacing" textLength="165.8535" x="119.4" y="344.2564">+getHealth() const : int</text><text fill="#000000" font-family="sans-serif" font-size="14" lengthAdjust="spacing" textLength="270.6963" x="119.4" y="360.5532">#getAttackValue() const : int &#171;virtual&#187;</text><text fill="#000000" font-family="sans-serif" font-size="14" lengthAdjust="spacing" textLength="306.0654" x="119.4" y="376.8501">#receiveDamage(dmg : int) : void &#171;virtual&#187;</text></g><!--class Weapon--><g class="entity" data-entity="Weapon" data-source-line="27" data-uid="ent0004" id="entity_Weapon"><rect fill="#F1F1F1" height="162.0781" rx="2.5" ry="2.5" style="stroke:#181818;stroke-width:0.5;" width="503.4834" x="505.65" y="205.78"/><ellipse cx="724.4615" cy="221.78" fill="#ADD1B2" rx="11" ry="11" style="stroke:#181818;stroke-width:1;"/><path d="M727.4303,227.4206 Q726.8521,227.7175 726.2115,227.8581 Q725.5709,228.0144 724.8678,228.0144 Q722.3678,228.0144 721.0396,226.3738 Q719.7271,224.7175 719.7271,221.5925 Q719.7271,218.4675 721.0396,216.8113 Q722.3678,215.155 724.8678,215.155 Q725.5709,215.155 726.2115,215.3113 Q726.8678,215.4675 727.4303,215.7644 L727.4303,218.4831 Q726.8053,217.905 726.2115,217.6394 Q725.6178,217.3581 724.9928,217.3581 Q723.649,217.3581 722.9615,218.4363 Q722.274,219.4988 722.274,221.5925 Q722.274,223.6863 722.9615,224.7644 Q723.649,225.8269 724.9928,225.8269 Q725.6178,225.8269 726.2115,225.5613 Q726.8053,225.28 727.4303,224.7019 L727.4303,227.4206 Z " fill="#000000"/><text fill="#000000" font-family="sans-serif" font-size="14" lengthAdjust="spacing" textLength="57.3604" x="744.9615" y="226.6267">Weapon</text><line style="stroke:#181818;stroke-width:0.5;" x1="506.65" x2="1008.1334" y1="237.78" y2="237.78"/><text fill="#000000" font-family="sans-serif" font-size="14" lengthAdjust="spacing" textLength="158.1631" x="511.65" y="254.7751">-weapon_strength : int</text><text fill="#000000" font-family="sans-serif" font-size="14" lengthAdjust="spacing" textLength="152.0996" x="511.65" y="271.072">-weapon_type : string</text><text fill="#000000" font-family="sans-serif" font-size="14" lengthAdjust="spacing" text-decoration="underline" textLength="426.9043" x="511.65" y="287.3689">+{readOnly} max_weapon_strength : int &#171;constexpr&#187; = 300</text><line style="stroke:#181818;stroke-width:0.5;" x1="506.65" x2="1008.1334" y1="294.6706" y2="294.6706"/><text fill="#000000" font-family="sans-serif" font-size="14" lengthAdjust="spacing" textLength="491.4834" x="511.65" y="311.6657">+Weapon(name : string, weapon_strength : int, weapon_type : string)</text><text fill="#000000" font-family="sans-serif" font-size="14" lengthAdjust="spacing" textLength="233.5156" x="511.65" y="327.9626">+getWeaponType() const : string</text><text fill="#000000" font-family="sans-serif" font-size="14" lengthAdjust="spacing" textLength="258.4121" x="511.65" y="344.2595">+describe() const : string &#171;override&#187;</text><text fill="#000000" font-family="sans-serif" font-size="14" lengthAdjust="spacing" textLength="304.4521" x="511.65" y="360.5564">#getWeaponStrength() const : int &#171;virtual&#187;</text></g><!--class Player--><g class="entity" data-entity="Player" data-source-line="37" data-uid="ent0005" id="entity_Player"><rect fill="#F1F1F1" height="194.6719" rx="2.5" ry="2.5" style="stroke:#181818;stroke-width:0.5;" width="574.7754" x="7" y="429.3"/><ellipse cx="268.355" cy="445.3" fill="#ADD1B2" rx="11" ry="11" style="stroke:#181818;stroke-width:1;"/><path d="M271.3237,450.9406 Q270.7456,451.2375 270.105,451.3781 Q269.4644,451.5344 268.7612,451.5344 Q266.2612,451.5344 264.9331,449.8938 Q263.6206,448.2375 263.6206,445.1125 Q263.6206,441.9875 264.9331,440.3313 Q266.2612,438.675 268.7612,438.675 Q269.4644,438.675 270.105,438.8313 Q270.7612,438.9875 271.3237,439.2844 L271.3237,442.0031 Q270.6987,441.425 270.105,441.1594 Q269.5112,440.8781 268.8862,440.8781 Q267.5425,440.8781 266.855,441.9563 Q266.1675,443.0188 266.1675,445.1125 Q266.1675,447.2063 266.855,448.2844 Q267.5425,449.3469 268.8862,449.3469 Q269.5112,449.3469 270.105,449.0813 Q270.6987,448.8 271.3237,448.2219 L271.3237,450.9406 Z " fill="#000000"/><text fill="#000000" font-family="sans-serif" font-size="14" lengthAdjust="spacing" textLength="43.5654" x="288.855" y="450.1467">Player</text><line style="stroke:#181818;stroke-width:0.5;" x1="8" x2="580.7754" y1="461.3" y2="461.3"/><line style="stroke:#181818;stroke-width:0.5;" x1="8" x2="580.7754" y1="469.3" y2="469.3"/><text fill="#000000" font-family="sans-serif" font-size="14" lengthAdjust="spacing" text-decoration="underline" textLength="366.3105" x="13" y="486.2951">-health_multiplier(weapon_type : const string&amp;) : int</text><text fill="#000000" font-family="sans-serif" font-size="14" lengthAdjust="spacing" text-decoration="underline" textLength="365.9346" x="13" y="502.592">-attack_multiplier(weapon_type : const string&amp;) : int</text><text fill="#000000" font-family="sans-serif" font-size="14" lengthAdjust="spacing" textLength="562.7754" x="13" y="518.8889">+Player(name : string, health : int, weapon_strength : int, weapon_type : string)</text><text fill="#000000" font-family="sans-serif" font-size="14" lengthAdjust="spacing" textLength="237.4326" x="13" y="535.1857">+getCharacterInfo() const : string</text><text fill="#000000" font-family="sans-serif" font-size="14" lengthAdjust="spacing" textLength="225.6748" x="13" y="551.4826">+getWeaponInfo() const : string</text><text fill="#000000" font-family="sans-serif" font-size="14" lengthAdjust="spacing" textLength="325.2197" x="13" y="567.7795">+getCharacterType() const : string &#171;override&#187;</text><text fill="#000000" font-family="sans-serif" font-size="14" lengthAdjust="spacing" textLength="258.4121" x="13" y="584.0764">+describe() const : string &#171;override&#187;</text><text fill="#000000" font-family="sans-serif" font-size="14" lengthAdjust="spacing" textLength="284.2998" x="13" y="600.3732">#getAttackValue() const : int &#171;override&#187;</text><text fill="#000000" font-family="sans-serif" font-size="14" lengthAdjust="spacing" textLength="319.6689" x="13" y="616.6701">#receiveDamage(dmg : int) : void &#171;override&#187;</text></g><!--class NPC--><g class="entity" data-entity="NPC" data-source-line="49" data-uid="ent0006" id="entity_NPC"><rect fill="#F1F1F1" height="210.9688" rx="2.5" ry="2.5" style="stroke:#181818;stroke-width:0.5;" width="559.9004" x="611.44" y="421.15"/><ellipse cx="872.795" cy="437.15" fill="#ADD1B2" rx="11" ry="11" style="stroke:#181818;stroke-width:1;"/><path d="M875.7637,442.7906 Q875.1856,443.0875 874.545,443.2281 Q873.9044,443.3844 873.2012,443.3844 Q870.7012,443.3844 869.3731,441.7438 Q868.0606,440.0875 868.0606,436.9625 Q868.0606,433.8375 869.3731,432.1813 Q870.7012,430.525 873.2012,430.525 Q873.9044,430.525 874.545,430.6813 Q875.2012,430.8375 875.7637,431.1344 L875.7637,433.8531 Q875.1387,433.275 874.545,433.0094 Q873.9512,432.7281 873.3262,432.7281 Q871.9825,432.7281 871.295,433.8063 Q870.6075,434.8688 870.6075,436.9625 Q870.6075,439.0563 871.295,440.1344 Q871.9825,441.1969 873.3262,441.1969 Q873.9512,441.1969 874.545,440.9313 Q875.1387,440.65 875.7637,440.0719 L875.7637,442.7906 Z " fill="#000000"/><text fill="#000000" font-family="sans-serif" font-size="14" lengthAdjust="spacing" textLength="28.6904" x="893.295" y="441.9967">NPC</text><line style="stroke:#181818;stroke-width:0.5;" x1="612.44" x2="1170.3404" y1="453.15" y2="453.15"/><text fill="#000000" font-family="sans-serif" font-size="14" lengthAdjust="spacing" textLength="140.5674" x="617.44" y="470.1451">-original_health : int</text><text fill="#000000" font-family="sans-serif" font-size="14" lengthAdjust="spacing" textLength="100.1738" x="617.44" y="486.442">-in_rage : bool</text><line style="stroke:#181818;stroke-width:0.5;" x1="612.44" x2="1170.3404" y1="493.7438" y2="493.7438"/><text fill="#000000" font-family="sans-serif" font-size="14" lengthAdjust="spacing" textLength="547.9004" x="617.44" y="510.7389">+NPC(name : string, health : int, weapon_strength : int, weapon_type : string)</text><text fill="#000000" font-family="sans-serif" font-size="14" lengthAdjust="spacing" textLength="237.4326" x="617.44" y="527.0357">+getCharacterInfo() const : string</text><text fill="#000000" font-family="sans-serif" font-size="14" lengthAdjust="spacing" textLength="225.6748" x="617.44" y="543.3326">+getWeaponInfo() const : string</text><text fill="#000000" font-family="sans-serif" font-size="14" lengthAdjust="spacing" textLength="325.2197" x="617.44" y="559.6295">+getCharacterType() const : string &#171;override&#187;</text><text fill="#000000" font-family="sans-serif" font-size="14" lengthAdjust="spacing" textLength="157.1172" x="617.44" y="575.9264">+inRage() const : bool</text><text fill="#000000" font-family="sans-serif" font-size="14" lengthAdjust="spacing" textLength="258.4121" x="617.44" y="592.2232">+describe() const : string &#171;override&#187;</text><text fill="#000000" font-family="sans-serif" font-size="14" lengthAdjust="spacing" textLength="284.2998" x="617.44" y="608.5201">#getAttackValue() const : int &#171;override&#187;</text><text fill="#000000" font-family="sans-serif" font-size="14" lengthAdjust="spacing" textLength="319.6689" x="617.44" y="624.817">#receiveDamage(dmg : int) : void &#171;override&#187;</text></g><!--class GameEngine--><g class="entity" data-entity="GameEngine" data-source-line="62" data-uid="ent0007" id="entity_GameEngine"><rect fill="#F1F1F1" height="210.9688" rx="2.5" ry="2.5" style="stroke:#181818;stroke-width:0.5;" width="604.4092" x="342.18" y="685.12"/><ellipse cx="595.3045" cy="701.12" fill="#ADD1B2" rx="11" ry="11" style="stroke:#181818;stroke-width:1;"/><path d="M598.2733,706.7606 Q597.6951,707.0575 597.0545,707.1981 Q596.4139,707.3544 595.7108,707.3544 Q593.2108,707.3544 591.8826,705.7138 Q590.5701,704.0575 590.5701,700.9325 Q590.5701,697.8075 591.8826,696.1513 Q593.2108,694.495 595.7108,694.495 Q596.4139,694.495 597.0545,694.6513 Q597.7108,694.8075 598.2733,695.1044 L598.2733,697.8231 Q597.6483,697.245 597.0545,696.9794 Q596.4608,696.6981 595.8358,696.6981 Q594.492,696.6981 593.8045,697.7763 Q593.117,698.8388 593.117,700.9325 Q593.117,703.0263 593.8045,704.1044 Q594.492,705.1669 595.8358,705.1669 Q596.4608,705.1669 597.0545,704.9013 Q597.6483,704.62 598.2733,704.0419 L598.2733,706.7606 Z " fill="#000000"/><text fill="#000000" font-family="sans-serif" font-size="14" lengthAdjust="spacing" textLength="89.6602" x="615.8045" y="705.9667">GameEngine</text><line style="stroke:#181818;stroke-width:0.5;" x1="343.18" x2="945.5892" y1="717.12" y2="717.12"/><text fill="#000000" font-family="sans-serif" font-size="14" lengthAdjust="spacing" textLength="181.0498" x="348.18" y="734.1151">-turn_count : unsigned int</text><text fill="#000000" font-family="sans-serif" font-size="14" lengthAdjust="spacing" textLength="145.8447" x="348.18" y="750.412">-current : Character*</text><text fill="#000000" font-family="sans-serif" font-size="14" lengthAdjust="spacing" textLength="137.6006" x="348.18" y="766.7089">-target : Character*</text><text fill="#000000" font-family="sans-serif" font-size="14" lengthAdjust="spacing" textLength="113.2441" x="348.18" y="783.0057">-player : Player*</text><text fill="#000000" font-family="sans-serif" font-size="14" lengthAdjust="spacing" textLength="79.8164" x="348.18" y="799.3026">-npc : NPC*</text><line style="stroke:#181818;stroke-width:0.5;" x1="343.18" x2="945.5892" y1="806.6044" y2="806.6044"/><text fill="#000000" font-family="sans-serif" font-size="14" lengthAdjust="spacing" textLength="252.4648" x="348.18" y="823.5995">+GameEngine(p : Player*, n : NPC*)</text><text fill="#000000" font-family="sans-serif" font-size="14" lengthAdjust="spacing" textLength="328.8018" x="348.18" y="839.8964">+printState(std::ostream&amp; output) const : void</text><text fill="#000000" font-family="sans-serif" font-size="14" lengthAdjust="spacing" textLength="537.4619" x="348.18" y="856.1932">+logAction(std::ostream&amp; output, ch_type : const string&amp;, attack : int) : void</text><text fill="#000000" font-family="sans-serif" font-size="14" lengthAdjust="spacing" textLength="592.4092" x="348.18" y="872.4901">+turnAction(std::ostream&amp; output, attacker : Character* , target : Character*) : void</text><text fill="#000000" font-family="sans-serif" font-size="14" lengthAdjust="spacing" textLength="239.9824" x="348.18" y="888.787">+run(std::ostream&amp; output) : void</text></g><!--reverse link Object to Character--><g class="link" data-entity-1="Object" data-entity-2="Character" data-source-line="76" data-uid="lnk8" id="link_Object_Character"><path codeLine="76" d="M490.6628,147.3378 C467.3928,163.7578 456.55,171.4 431.52,189.06" fill="none" id="Object-backto-Character" style="stroke:#181818;stroke-width:1;"/><polygon fill="none" points="505.37,136.96,487.2036,142.4354,494.1221,152.2402,505.37,136.96" style="stroke:#181818;stroke-width:1;"/><text fill="#000000" font-family="sans-serif" font-size="13" lengthAdjust="spacing" textLength="41.5645" x="474.39" y="167.5469">virtual</text></g><!--link Object to Character--><!--reverse link Object to Weapon--><g class="link" data-entity-1="Object" data-entity-2="Weapon" data-source-line="77" data-uid="lnk9" id="link_Object_Weapon"><path codeLine="77" d="M655.7653,151.3183 C672.0653,172.8783 679.59,182.85 696.7,205.5" fill="none" id="Object-backto-Weapon" style="stroke:#181818;stroke-width:1;"/><polygon fill="none" points="644.91,136.96,650.9792,154.9368,660.5514,147.6999,644.91,136.96" style="stroke:#181818;stroke-width:1;"/><text fill="#000000" font-family="sans-serif" font-size="13" lengthAdjust="spacing" textLength="41.5645" x="668.39" y="167.5469">virtual</text></g><!--link Object to Weapon--><!--reverse link Character to Player--><g class="link" data-entity-1="Character" data-entity-2="Player" data-source-line="78" data-uid="lnk10" id="link_Character_Player"><path codeLine="78" d="M283.0276,402.5478 C282.7976,417.2078 283.08,414.33 283.31,428.99" fill="none" id="Character-backto-Player" style="stroke:#181818;stroke-width:1;"/><polygon fill="none" points="283.31,384.55,277.0284,402.4537,289.0269,402.6419,283.31,384.55" style="stroke:#181818;stroke-width:1;"/></g><!--link Character to Player--><!--reverse link Character to NPC--><g class="link" data-entity-1="Character" data-entity-2="NPC" data-source-line="79" data-uid="lnk11" id="link_Character_NPC"><path codeLine="79" d="M492.3324,385.1282 C538.3624,404.3982 549.31,404.6 596.39,421.15 C601.26,422.86 606.17,424.59 611.12,426.34" fill="none" id="Character-backto-NPC" style="stroke:#181818;stroke-width:1;"/><polygon fill="none" points="475.83,377.94,489.9364,390.629,494.7285,379.6274,475.83,377.94" style="stroke:#181818;stroke-width:1;"/></g><!--reverse link Weapon to Player--><g class="link" data-entity-1="Weapon" data-entity-2="Player" data-source-line="80" data-uid="lnk12" id="link_Weapon_Player"><path codeLine="80" d="M573.8689,376.4566 C535.3889,395.9266 510.43,408.81 471.56,428.94" fill="none" id="Weapon-backto-Player" style="stroke:#181818;stroke-width:1;"/><polygon fill="none" points="589.93,368.33,571.16,371.1029,576.5777,381.8103,589.93,368.33" style="stroke:#181818;stroke-width:1;"/></g><!--link Weapon to Player--><!--reverse link Weapon to NPC--><g class="link" data-entity-1="Weapon" data-entity-2="NPC" data-source-line="81" data-uid="lnk13" id="link_Weapon_NPC"><path codeLine="81" d="M811.5831,384.0136 C821.0731,400.8636 822.38,403.17 832.29,420.75" fill="none" id="Weapon-backto-NPC" style="stroke:#181818;stroke-width:1;"/><polygon fill="none" points="802.75,368.33,806.3552,386.958,816.811,381.0693,802.75,368.33" style="stroke:#181818;stroke-width:1;"/></g><!--link GameEngine to Player--><g class="link" data-entity-1="GameEngine" data-entity-2="Player" data-source-line="84" data-uid="lnk14" id="link_GameEngine_Player"><path codeLine="84" d="M618.68,684.91 C611,672.2 601.9,660.18 591.39,650.12 C581.75,640.89 576.1576,635.8219 565.1376,627.8319" fill="none" id="GameEngine-to-Player" style="stroke:#181818;stroke-width:1;"/><polygon fill="#181818" points="560.28,624.31,565.2184,632.8313,564.328,627.245,569.9143,626.3546,560.28,624.31" style="stroke:#181818;stroke-width:1;"/></g><!--link Player to GameEngine--><g class="link" data-entity-1="Player" data-entity-2="GameEngine" data-source-line="89" data-uid="lnk16" id="link_Player_GameEngine"><path codeLine="89" d="M395.03,624.11 C412.06,639.05 429.9,653.89 447.39,667.12 C455.18,673.01 458.3564,675.4325 466.5964,681.2425" fill="none" id="Player-to-GameEngine" style="stroke:#181818;stroke-width:1;stroke-dasharray:7,7;"/><polygon fill="#181818" points="471.5,684.7,466.4496,676.2446,467.4136,681.8187,461.8395,682.7828,471.5,684.7" style="stroke:#181818;stroke-width:1;"/><text fill="#000000" font-family="sans-serif" font-size="13" lengthAdjust="spacing" textLength="124.541" x="448.39" y="663.1869">friend: turnAction()</text></g><!--link Player to GameEngine--><!--link GameEngine to NPC--><g class="link" data-entity-1="GameEngine" data-entity-2="NPC" data-source-line="85" data-uid="lnk15" id="link_GameEngine_NPC"><path codeLine="85" d="M842.43,684.95 C848.1,679.24 853.44,673.3 858.39,667.12 C866.71,656.73 871.1648,650.2657 876.7848,637.8557" fill="none" id="GameEngine-to-NPC" style="stroke:#181818;stroke-width:1;"/><polygon fill="#181818" points="879.26,632.39,871.9035,638.9384,877.1973,636.9447,879.191,642.2386,879.26,632.39" style="stroke:#181818;stroke-width:1;"/></g><!--link NPC to GameEngine--><g class="link" data-entity-1="NPC" data-entity-2="GameEngine" data-source-line="90" data-uid="lnk17" id="link_NPC_GameEngine"><path codeLine="90" d="M731.19,632.41 C725.29,638.15 719.66,644.06 714.39,650.12 C705.24,660.65 700.02,667.4569 692.6,679.8069" fill="none" id="NPC-to-GameEngine" style="stroke:#181818;stroke-width:1;stroke-dasharray:7,7;"/><polygon fill="#181818" points="689.51,684.95,697.5738,679.2953,692.085,680.6641,690.7163,675.1753,689.51,684.95" style="stroke:#181818;stroke-width:1;"/><text fill="#000000" font-family="sans-serif" font-size="13" lengthAdjust="spacing" textLength="124.541" x="715.39" y="663.1869">friend: turnAction()</text></g><!--link NPC to GameEngine--><!--link Player to NPC--><!--SRC=[tLRRRjj647tdLmnW894IoJ1Gz4Lm1HZkpK2Q17Kl3qKXhCWnkVLobrWkvIYkYdn8-mNzXBxbK_8bdRruUH6br7qgoXT1EsU6C-VCBAU-vR9YcfMG2bRN5yPelcuCNgLANlEt26U9KHKO1MjbZ2eXunfJmvLCwkWgLOOrLl39MUTGCtdh3ZzDagSmZmzSsXTXtJbAtBlXrVeN2Wtt2S0S92iH5b1JFZAda-V1FEaPfixoMp1DuVnymxLfc5WkdIL7yvBmP5a0LLIRuFV4MU_PclworEo02aYfSelqkFZgNHBIkooOnQ8E6HR8X2a8oANnuMh334ztSA-HPQ-asEwWP6zMNI1bwEBZcqelb_0PSNRcd6FqVe6ptcjykRo-47pJJNMjb7YeDmRwRbljbxF7qC722Qasg3NFi2NpQvTC1-jhFx4swXsMtlx0H8DzmE2T9q0TX5J0vwnaEKwoCW_LqSz6yQo7Z_J_YAnICd1_v_wiA5EKUKU4Q35KVBzz3gap6kgWJ3wBeKQZCMQZkKmVgFIHHaLwd30dRRJhaC0H_YEVhmNRnbwEvFXkMvMDCBmIdDgnNqHlYAOTtcC4vjhWqH6UXuIEjV-_8peEn9MyKUDSHmAFGZuwMODvUPo2nyPdWFxu_7GSek0lNry6jPNcEPTCh0PNs9n-LvfYTgyKSliVQSBbjvQpaQlpFwRMLqJv5v9amY2QQRHSfQgHzaMDh7akCOl2fOqc-gqfClBCkp5DwUwVLtxy5s7i_A6iKZeXnPyvIjeS9bMBd84C82zdHIIPQvf-dDGcMooKxGHMFW7LcAenBJksMkSXL7xXTeXHXncanUXbCGjtIvy_5z6ISpIaztG5jqJ0R8oUNc3To0DL1T1kiDrSoG8rDqoc29DmxSAQsOL7i3KAWTcqk_g4fUVyLxiPnGrZ0U__3Cxl_-fXmcUGdZwczNKmhzNmb4HBsW1TuE3K0ljrNTIrIZcp5FTMjqwVpkVBXt23q_rmNsgECeERHZhLO5AYALGs5xX1qIFeANp_pGieM4rh9cs5XaO9Fhpx_SO5-F3k3ziZALRcbAY1aZPH0Oo6kI8hodGBTvpk94OzX1gLRQlJ97pwJa-NtJ6pVFgeYsu_JObSUtNIyyyT-iM-O5lg6YYeQskOKCa5a_bu7z0p_wdW6UN-SwRkPASf3aEyU1sn1_OzZSVjWPPefAz4ONml34tUh-NYWQ63WBy1]--></g></svg>